<svg
  width="20"
  height="20"
  viewBox="0 0 20 20"
  fill="none"
  xmlns="http://www.w3.org/2000/svg"
>
  <path
    d="M14.5 4.5H5.5C5.23478 4.5 4.98043 4.60536 4.79289 4.79289C4.60536 4.98043 4.5 5.23478 4.5 5.5V14.5C4.5 14.7652 4.60536 15.0196 4.79289 15.2071C4.98043 15.3946 5.23478 15.5 5.5 15.5H14.5C14.7652 15.5 15.0196 15.3946 15.2071 15.2071C15.3946 15.0196 15.5 14.7652 15.5 14.5V5.5C15.5 5.23478 15.3946 4.98043 15.2071 4.79289C15.0196 4.60536 14.7652 4.5 14.5 4.5ZM14.5 9.5H10.5V5.5H14.5V9.5ZM9.5 5.5V9.5H5.5V5.5H9.5ZM5.5 10.5H9.5V14.5H5.5V10.5ZM14.5 14.5H10.5V10.5H14.5V14.5Z"
    fill="#16181E"
  />
</svg>
