<svg
  width="20"
  height="20"
  viewBox="0 0 20 20"
  fill="none"
  xmlns="http://www.w3.org/2000/svg"
>
  <path
    d="M16 5H4C3.73478 5 3.48043 5.10536 3.29289 5.29289C3.10536 5.48043 3 5.73478 3 6V7.5C3 7.76522 3.10536 8.01957 3.29289 8.20711C3.48043 8.39464 3.73478 8.5 4 8.5V14C4 14.2652 4.10536 14.5196 4.29289 14.7071C4.48043 14.8946 4.73478 15 5 15H15C15.2652 15 15.5196 14.8946 15.7071 14.7071C15.8946 14.5196 16 14.2652 16 14V8.5C16.2652 8.5 16.5196 8.39464 16.7071 8.20711C16.8946 8.01957 17 7.76522 17 7.5V6C17 5.73478 16.8946 5.48043 16.7071 5.29289C16.5196 5.10536 16.2652 5 16 5ZM15 14H5V8.5H15V14ZM16 7.5H4V6H16V7.5ZM8 10.5C8 10.3674 8.05268 10.2402 8.14645 10.1464C8.24021 10.0527 8.36739 10 8.5 10H11.5C11.6326 10 11.7598 10.0527 11.8536 10.1464C11.9473 10.2402 12 10.3674 12 10.5C12 10.6326 11.9473 10.7598 11.8536 10.8536C11.7598 10.9473 11.6326 11 11.5 11H8.5C8.36739 11 8.24021 10.9473 8.14645 10.8536C8.05268 10.7598 8 10.6326 8 10.5Z"
    fill="#969EB0"
  />
</svg>
