<svg
  width="20"
  height="20"
  viewBox="0 0 20 20"
  fill="none"
  xmlns="http://www.w3.org/2000/svg"
>
  <path
    d="M4 6C4 4.89543 4.89543 4 6 4H14C15.1046 4 16 4.89543 16 6V14C16 15.1046 15.1046 16 14 16H6C4.89543 16 4 15.1046 4 14V6Z"
    fill="#576077"
    fill-opacity="0.05"
  />
  <path
    fill-rule="evenodd"
    clip-rule="evenodd"
    d="M14 3H6C4.34315 3 3 4.34315 3 6V14C3 15.6569 4.34315 17 6 17H14C15.6569 17 17 15.6569 17 14V6C17 4.34315 15.6569 3 14 3ZM4 6C4 4.89543 4.89543 4 6 4H14C15.1046 4 16 4.89543 16 6V14C16 15.1046 15.1046 16 14 16H6C4.89543 16 4 15.1046 4 14V6ZM12.2239 8.11835C12.1114 8.22551 11.9587 8.28571 11.7996 8.28571H9.39961C9.24048 8.28571 9.08787 8.34592 8.97535 8.45308C8.86282 8.56025 8.79961 8.70559 8.79961 8.85714C8.79961 9.0087 8.86282 9.15404 8.97535 9.2612C9.08787 9.36837 9.24048 9.42857 9.39961 9.42857H10.5996C11.077 9.42857 11.5348 9.60918 11.8724 9.93067C12.21 10.2522 12.3996 10.6882 12.3996 11.1429C12.3996 11.5975 12.21 12.0336 11.8724 12.355C11.5348 12.6765 11.077 12.8571 10.5996 12.8571V13.4286C10.5996 13.5801 10.5364 13.7255 10.4239 13.8326C10.3114 13.9398 10.1587 14 9.99961 14C9.84048 14 9.68787 13.9398 9.57535 13.8326C9.46282 13.7255 9.39961 13.5801 9.39961 13.4286V12.8571H8.19961C8.04048 12.8571 7.88787 12.7969 7.77535 12.6898C7.66282 12.5826 7.59961 12.4373 7.59961 12.2857C7.59961 12.1342 7.66282 11.9888 7.77535 11.8817C7.88787 11.7745 8.04048 11.7143 8.19961 11.7143H10.5996C10.7587 11.7143 10.9114 11.6541 11.0239 11.5469C11.1364 11.4398 11.1996 11.2944 11.1996 11.1429C11.1996 10.9913 11.1364 10.846 11.0239 10.7388C10.9114 10.6316 10.7587 10.5714 10.5996 10.5714H9.39961C8.92222 10.5714 8.46438 10.3908 8.12682 10.0693C7.78925 9.74784 7.59961 9.3118 7.59961 8.85714C7.59961 8.40249 7.78925 7.96645 8.12682 7.64496C8.46438 7.32347 8.92222 7.14286 9.39961 7.14286V6.57143C9.39961 6.41988 9.46282 6.27453 9.57535 6.16737C9.68787 6.0602 9.84048 6 9.99961 6C10.1587 6 10.3114 6.0602 10.4239 6.16737C10.5364 6.27453 10.5996 6.41988 10.5996 6.57143V7.14286H11.7996C11.9587 7.14286 12.1114 7.20306 12.2239 7.31022C12.3364 7.41739 12.3996 7.56273 12.3996 7.71429C12.3996 7.86584 12.3364 8.01118 12.2239 8.11835Z"
    fill="#16181E"
  />
</svg>
