<svg
  width="20"
  height="20"
  viewBox="0 0 20 20"
  fill="none"
  xmlns="http://www.w3.org/2000/svg"
>
  <path
    d="M17 8.5H16.325L14.5887 4.59375C14.5102 4.41702 14.382 4.26686 14.2199 4.16148C14.0577 4.05609 13.8684 4 13.675 4H6.325C6.13159 4 5.94233 4.05609 5.78014 4.16148C5.61796 4.26686 5.48982 4.41702 5.41125 4.59375L3.675 8.5H3C2.86739 8.5 2.74021 8.55268 2.64645 8.64645C2.55268 8.74021 2.5 8.86739 2.5 9C2.5 9.13261 2.55268 9.25979 2.64645 9.35355C2.74021 9.44732 2.86739 9.5 3 9.5H3.5V14.5C3.5 14.7652 3.60536 15.0196 3.79289 15.2071C3.98043 15.3946 4.23478 15.5 4.5 15.5H6C6.26522 15.5 6.51957 15.3946 6.70711 15.2071C6.89464 15.0196 7 14.7652 7 14.5V13.5H13V14.5C13 14.7652 13.1054 15.0196 13.2929 15.2071C13.4804 15.3946 13.7348 15.5 14 15.5H15.5C15.7652 15.5 16.0196 15.3946 16.2071 15.2071C16.3946 15.0196 16.5 14.7652 16.5 14.5V9.5H17C17.1326 9.5 17.2598 9.44732 17.3536 9.35355C17.4473 9.25979 17.5 9.13261 17.5 9C17.5 8.86739 17.4473 8.74021 17.3536 8.64645C17.2598 8.55268 17.1326 8.5 17 8.5ZM6.325 5H13.675L15.2306 8.5H4.76938L6.325 5ZM6 14.5H4.5V13.5H6V14.5ZM14 14.5V13.5H15.5V14.5H14ZM15.5 12.5H4.5V9.5H15.5V12.5ZM5.5 11C5.5 10.8674 5.55268 10.7402 5.64645 10.6464C5.74021 10.5527 5.86739 10.5 6 10.5H7C7.13261 10.5 7.25979 10.5527 7.35355 10.6464C7.44732 10.7402 7.5 10.8674 7.5 11C7.5 11.1326 7.44732 11.2598 7.35355 11.3536C7.25979 11.4473 7.13261 11.5 7 11.5H6C5.86739 11.5 5.74021 11.4473 5.64645 11.3536C5.55268 11.2598 5.5 11.1326 5.5 11ZM12.5 11C12.5 10.8674 12.5527 10.7402 12.6464 10.6464C12.7402 10.5527 12.8674 10.5 13 10.5H14C14.1326 10.5 14.2598 10.5527 14.3536 10.6464C14.4473 10.7402 14.5 10.8674 14.5 11C14.5 11.1326 14.4473 11.2598 14.3536 11.3536C14.2598 11.4473 14.1326 11.5 14 11.5H13C12.8674 11.5 12.7402 11.4473 12.6464 11.3536C12.5527 11.2598 12.5 11.1326 12.5 11Z"
    fill="#16181E"
  />
</svg>
