<svg xmlns="http://www.w3.org/2000/svg" width="20" height="20" fill="none">
  <path
    fill="#F0F2F4"
    d="M16 10c0 1.1867-.3519 2.3467-1.0112 3.3334-.6593.9867-1.5963 1.7558-2.6927 2.2099-1.0964.4541-2.30275.5729-3.46664.3414-1.16388-.2315-2.23298-.8029-3.0721-1.6421-.83911-.8391-1.41056-1.9082-1.64207-3.0721-.23151-1.1638-.11269-2.37024.34144-3.4666.45412-1.09636 1.22316-2.03343 2.20985-2.69272C7.65328 4.35189 8.81331 4 10 4c1.5913 0 3.1174.63214 4.2426 1.75736C15.3679 6.88258 16 8.4087 16 10Z"
  />
  <path
    fill="#576077"
    d="M12.8538 8.14625c.0464.04644.0833.10158.1085.16228.0251.0607.0381.12576.0381.19147 0 .06571-.013.13077-.0381.19147-.0252.0607-.0621.11584-.1085.16228L9.35375 12.3538c-.04643.0464-.10158.0833-.16228.1085-.0607.0251-.12576.0381-.19147.0381-.06571 0-.13077-.013-.19147-.0381-.0607-.0252-.11584-.0621-.16228-.1085l-1.5-1.5c-.09382-.0939-.14653-.2211-.14653-.3538s.05271-.2599.14653-.3538c.09382-.0938.22107-.14648.35375-.14648.13268 0 .25993.05268.35375.14648L9 11.2931l3.1463-3.14685c.0464-.04649.1015-.08337.1622-.10853.0607-.02516.1258-.03811.1915-.03811.0657 0 .1308.01295.1915.03811.0607.02516.1158.06204.1623.10853ZM16.5 10c0 1.2856-.3812 2.5423-1.0954 3.6112-.7143 1.0689-1.7294 1.902-2.9172 2.394-1.1877.492-2.49461.6207-3.75548.3699-1.26088-.2508-2.41907-.8699-3.32811-1.7789-.90904-.909-1.52811-2.0672-1.77891-3.3281-.25081-1.2609-.12208-2.56782.36989-3.75554.49197-1.18772 1.32509-2.20288 2.39401-2.91711C7.45772 3.88122 8.71442 3.5 10 3.5c1.7234.00182 3.3756.68722 4.5942 1.90582C15.8128 6.62441 16.4982 8.27665 16.5 10Zm-1 0c0-1.0878-.3226-2.15117-.9269-3.05564-.6044-.90447-1.4633-1.60942-2.4683-2.0257-1.005-.41628-2.1109-.5252-3.17779-.31298-1.0669.21222-2.04691.73604-2.81609 1.50523-.76919.76919-1.29302 1.7492-1.50524 2.81609-.21222 1.0669-.1033 2.1728.31298 3.1778.41629 1.005 1.12124 1.8639 2.02571 2.4683.90447.6043 1.96784.9269 3.05563.9269 1.4582-.0017 2.8562-.5816 3.8873-1.6127C14.9184 12.8562 15.4983 11.4582 15.5 10Z"
  />
</svg>
