<svg xmlns="http://www.w3.org/2000/svg" width="20" height="20" fill="none">
  <path
    fill="#576077"
    d="M16.502 10c0-1.28558-.3813-2.54229-1.0955-3.61121-.7142-1.06891-1.7294-1.90204-2.9171-2.394-1.1877-.49197-2.49465-.6207-3.75553-.36989-1.26088.2508-2.41907.86987-3.32811 1.77891-.90904.90904-1.5281 2.06723-1.77891 3.3281-.2508 1.26088-.12208 2.56779.36989 3.75549.49197 1.1878 1.32509 2.2029 2.39401 2.9172C7.45967 16.1188 8.71638 16.5 10.002 16.5c1.7233-.0018 3.3755-.6872 4.5941-1.9058S16.5001 11.7234 16.502 10ZM4.50196 10c0-1.0878.32257-2.15116.92691-3.05563.60435-.90447 1.46333-1.60942 2.46833-2.02571 1.00499-.41628 2.1109-.5252 3.1778-.31298 1.0668.21222 2.0469.73605 2.816 1.50523.7692.76919 1.2931 1.7492 1.5053 2.81609.2122 1.0669.1033 2.1728-.313 3.1778s-1.1212 1.8639-2.0257 2.4683c-.9045.6043-1.9678.9269-3.0556.9269-1.45823-.0017-2.85621-.5816-3.8873-1.6127C5.0836 12.8562 4.50361 11.4582 4.50196 10Zm4.85375 2.8538c-.04646.0464-.10161.0833-.1623.1084-.0607.0251-.12576.0381-.19145.0381-.0657 0-.13075-.013-.19145-.0381-.0607-.0251-.11585-.062-.1623-.1084-.04646-.0465-.08331-.1017-.10845-.1624-.02514-.0606-.03808-.1257-.03808-.1914 0-.0657.01294-.1308.03808-.1914.02514-.0607.06199-.1159.10845-.1623L10.7951 10 8.64821 7.85375c-.04646-.04645-.08331-.1016-.10845-.1623-.02514-.0607-.03808-.12575-.03808-.19145 0-.0657.01294-.13075.03808-.19145.02514-.06069.06199-.11584.10845-.1623.04645-.04645.1016-.0833.1623-.10844.0607-.02515.12575-.03809.19145-.03809.06569 0 .13075.01294.19144.03809.0607.02514.11585.06199.16231.10844l2.49999 2.5c.0465.04644.0834.10158.1085.16228.0252.0607.0381.12576.0381.19147 0 .0657-.0129.1308-.0381.1915-.0251.0607-.062.1158-.1085.1623l-2.49999 2.5Z"
  />
</svg>
