<svg xmlns="http://www.w3.org/2000/svg" width="20" height="20" fill="none">
  <path
    fill="#576077"
    d="M10 3.5c-1.28558 0-2.54229.38122-3.61121 1.09544-1.06892.71423-1.90204 1.7294-2.39401 2.91711-.49197 1.18772-.62069 2.49465-.36989 3.75555.25081 1.2609.86988 2.419 1.77892 3.3281.90904.909 2.06723 1.5281 3.3281 1.7789 1.26088.2508 2.56779.1221 3.75549-.3699 1.1878-.492 2.2029-1.3251 2.9172-2.394C16.1188 12.5423 16.5 11.2856 16.5 10c-.0018-1.72335-.6872-3.3756-1.9058-4.59419C13.3756 4.18722 11.7233 3.50182 10 3.5Zm0 12c-1.0878 0-2.15116-.3226-3.05564-.9269-.90447-.6044-1.60941-1.4634-2.0257-2.4683-.41628-1.005-.5252-2.1109-.31298-3.1778.21222-1.0669.73604-2.0469 1.50523-2.81609S7.86011 4.8179 8.927 4.60568c1.0669-.21222 2.1728-.1033 3.1778.31298s1.8639 1.12123 2.4683 2.0257C15.1774 7.84883 15.5 8.9122 15.5 10c-.0017 1.4582-.5816 2.8562-1.6127 3.8873-1.0311 1.031-2.4291 1.611-3.8873 1.6127Zm2.8538-4.8538c.0464.0465.0833.1017.1084.1623.0251.0607.0381.1258.0381.1915 0 .0657-.013.1307-.0381.1914-.0251.0607-.062.1159-.1084.1623-.0465.0465-.1017.0834-.1624.1085-.0606.0251-.1257.0381-.1914.0381-.0657 0-.1308-.013-.1914-.0381-.0607-.0251-.1159-.062-.1623-.1085L10 9.20687 7.85375 11.3537c-.04645.0465-.1016.0834-.1623.1085-.0607.0251-.12575.0381-.19145.0381-.0657 0-.13075-.013-.19145-.0381-.06069-.0251-.11584-.062-.1623-.1085-.04646-.0464-.08331-.1016-.10845-.1623-.02514-.0607-.03808-.1257-.03808-.1914 0-.0657.01294-.1308.03808-.1915.02514-.0606.06199-.1158.10845-.1623l2.5-2.49995c.04644-.04649.10158-.08337.16228-.10853.0607-.02516.12576-.03812.19147-.03812.0657 0 .1308.01296.1915.03812.0607.02516.1158.06204.1623.10853l2.5 2.49995Z"
  />
</svg>
