<svg
  xmlns="http://www.w3.org/2000/svg"
  width="20"
  height="20"
  fill="currentColor"
>
  <path
    fill="currentColor"
    d="M10 3.5c-1.28558 0-2.54228.38122-3.6112 1.09545-1.06892.71423-1.90204 1.72939-2.39401 2.91711-.49197 1.18772-.6207 2.49464-.36989 3.75554.2508 1.2609.86987 2.4191 1.77891 3.3281.90904.909 2.06723 1.5281 3.32811 1.7789 1.26087.2508 2.56778.1221 3.75548-.3699 1.1878-.492 2.2029-1.3251 2.9172-2.394C16.1188 12.5423 16.5 11.2856 16.5 10c-.0018-1.72335-.6872-3.37559-1.9058-4.59418C13.3756 4.18722 11.7234 3.50182 10 3.5Zm0 12c-1.08779 0-2.15116-.3226-3.05563-.9269-.90447-.6044-1.60942-1.4633-2.0257-2.4683-.41629-1.005-.52521-2.1109-.31299-3.1778.21222-1.06689.73605-2.0469 1.50524-2.81609.76918-.76919 1.74919-1.29301 2.81609-1.50523 1.06689-.21222 2.17279-.1033 3.17779.31298s1.8639 1.12123 2.4683 2.0257C15.1774 7.84883 15.5 8.9122 15.5 10c-.0017 1.4582-.5816 2.8562-1.6127 3.8873C12.8562 14.9184 11.4582 15.4983 10 15.5Zm2.8538-6.85375c.0464.04644.0833.10158.1085.16228.0251.0607.0381.12576.0381.19147 0 .06571-.013.13077-.0381.19147-.0252.0607-.0621.11584-.1085.16228l-2.5 2.50005c-.0465.0464-.1016.0833-.1623.1085-.0607.0251-.1258.0381-.1915.0381-.0657 0-.13077-.013-.19147-.0381-.0607-.0252-.11584-.0621-.16228-.1085l-2.5-2.50005C7.05243 9.25993 6.99973 9.13268 6.99973 9c0-.13268.0527-.25993.14652-.35375.09382-.09382.22107-.14653.35375-.14653.13268 0 .25993.05271.35375.14653L10 10.7931l2.1463-2.14685c.0464-.04649.1015-.08337.1622-.10853.0607-.02516.1258-.03811.1915-.03811.0657 0 .1308.01295.1915.03811.0607.02516.1158.06204.1623.10853Z"
  />
</svg>
