<svg
  width="20"
  height="20"
  viewBox="0 0 20 20"
  fill="none"
  xmlns="http://www.w3.org/2000/svg"
>
  <g id="ui / icons/PersonChild">
    <path
      id="icon"
      d="M8.03711 10.875C7.88878 10.875 7.74377 10.831 7.62043 10.7486C7.4971 10.6662 7.40097 10.5491 7.3442 10.412C7.28744 10.275 7.27258 10.1242 7.30152 9.97868C7.33046 9.8332 7.40189 9.69956 7.50678 9.59467C7.61167 9.48978 7.74531 9.41835 7.89079 9.38941C8.03628 9.36047 8.18708 9.37532 8.32412 9.43209C8.46117 9.48886 8.5783 9.58499 8.66071 9.70832C8.74313 9.83166 8.78711 9.97666 8.78711 10.125C8.78711 10.3239 8.70809 10.5147 8.56744 10.6553C8.42679 10.796 8.23602 10.875 8.03711 10.875ZM12.5371 9.375C12.3888 9.375 12.2438 9.41899 12.1204 9.5014C11.9971 9.58381 11.901 9.70094 11.8442 9.83799C11.7874 9.97503 11.7726 10.1258 11.8015 10.2713C11.8305 10.4168 11.9019 10.5504 12.0068 10.6553C12.1117 10.7602 12.2453 10.8317 12.3908 10.8606C12.5363 10.8895 12.6871 10.8747 12.8241 10.8179C12.9612 10.7611 13.0783 10.665 13.1607 10.5417C13.2431 10.4183 13.2871 10.2733 13.2871 10.125C13.2871 9.92609 13.2081 9.73532 13.0674 9.59467C12.9268 9.45402 12.736 9.375 12.5371 9.375ZM11.7702 12.2019C11.3249 12.4783 10.8112 12.6247 10.2871 12.6247C9.763 12.6247 9.24931 12.4783 8.80399 12.2019C8.69177 12.1311 8.55603 12.1078 8.42663 12.1371C8.29723 12.1664 8.18477 12.2459 8.11399 12.3581C8.04321 12.4703 8.01991 12.6061 8.04921 12.7355C8.07851 12.8649 8.15802 12.9773 8.27024 13.0481C8.87533 13.4253 9.57408 13.6253 10.2871 13.6253C11.0001 13.6253 11.6989 13.4253 12.304 13.0481C12.4162 12.9773 12.4957 12.8649 12.525 12.7355C12.5543 12.6061 12.531 12.4703 12.4602 12.3581C12.3895 12.2459 12.277 12.1664 12.1476 12.1371C12.0182 12.1078 11.8825 12.1311 11.7702 12.2019ZM16.7871 10.125C16.7871 11.4106 16.4059 12.6673 15.6917 13.7362C14.9774 14.8051 13.9623 15.6382 12.7746 16.1302C11.5868 16.6222 10.2799 16.7509 9.01903 16.5001C7.75815 16.2493 6.59996 15.6302 5.69092 14.7212C4.78188 13.8122 4.16281 12.654 3.91201 11.3931C3.6612 10.1322 3.78993 8.82528 4.2819 7.63756C4.77386 6.44984 5.60699 5.43468 6.67591 4.72045C7.74483 4.00622 9.00153 3.625 10.2871 3.625C12.0105 3.62682 13.6627 4.31222 14.8813 5.53082C16.0999 6.74941 16.7853 8.40165 16.7871 10.125ZM15.7871 10.125C15.7854 8.70915 15.2384 7.34838 14.2597 6.32524C13.281 5.3021 11.9459 4.69522 10.5315 4.63063C9.80711 5.64875 9.78711 6.6175 9.78711 6.625C9.78711 6.75761 9.83979 6.88479 9.93356 6.97855C10.0273 7.07232 10.1545 7.125 10.2871 7.125C10.4197 7.125 10.5469 7.07232 10.6407 6.97855C10.7344 6.88479 10.7871 6.75761 10.7871 6.625C10.7871 6.49239 10.8398 6.36521 10.9336 6.27145C11.0273 6.17768 11.1545 6.125 11.2871 6.125C11.4197 6.125 11.5469 6.17768 11.6407 6.27145C11.7344 6.36521 11.7871 6.49239 11.7871 6.625C11.7871 7.02282 11.6291 7.40436 11.3478 7.68566C11.0665 7.96696 10.6849 8.125 10.2871 8.125C9.88929 8.125 9.50776 7.96696 9.22645 7.68566C8.94515 7.40436 8.78711 7.02282 8.78711 6.625C8.78711 6.57938 8.79524 5.73125 9.31586 4.71062C8.28609 4.89538 7.33036 5.37001 6.56085 6.07883C5.79133 6.78764 5.23995 7.70124 4.97139 8.7124C4.70284 9.72357 4.72826 10.7904 5.04468 11.7876C5.36109 12.7848 5.95536 13.6711 6.75777 14.3425C7.56018 15.0138 8.53742 15.4424 9.57483 15.5779C10.6122 15.7134 11.6668 15.5502 12.6147 15.1074C13.5626 14.6646 14.3646 13.9607 14.9265 13.0782C15.4884 12.1957 15.787 11.1712 15.7871 10.125Z"
      fill="#16181E"
    />
  </g>
</svg>
