<svg
  width="20"
  height="20"
  viewBox="0 0 20 20"
  fill="none"
  xmlns="http://www.w3.org/2000/svg"
>
  <g id="ui / icons/ResponseTime">
    <path
      id="splash"
      d="M16 10C16 11.1867 15.6481 12.3467 14.9888 13.3334C14.3295 14.3201 13.3925 15.0892 12.2961 15.5433C11.1997 15.9974 9.99335 16.1162 8.82946 15.8847C7.66558 15.6532 6.59648 15.0818 5.75736 14.2426C4.91825 13.4035 4.3468 12.3344 4.11529 11.1705C3.88378 10.0067 4.0026 8.80026 4.45673 7.7039C4.91085 6.60754 5.67989 5.67047 6.66658 5.01118C7.65328 4.35189 8.81331 4 10 4C11.5913 4 13.1174 4.63214 14.2426 5.75736C15.3679 6.88258 16 8.4087 16 10Z"
      fill="#576077"
      fill-opacity="0.05"
    />
    <path
      id="icon"
      d="M16.5003 10.5415C16.394 11.7765 15.9373 12.9554 15.1838 13.9396C14.4303 14.9239 13.4113 15.6724 12.2469 16.0972C11.0824 16.522 9.82079 16.6054 8.61053 16.3376C7.40028 16.0697 6.29169 15.4618 5.4152 14.5853C4.53871 13.7088 3.93078 12.6002 3.66293 11.39C3.39509 10.1797 3.47847 8.91811 3.90327 7.75363C4.32807 6.58915 5.07662 5.57022 6.06084 4.81671C7.04506 4.0632 8.22402 3.60646 9.459 3.50023C9.52466 3.49482 9.59075 3.50239 9.65349 3.52251C9.71622 3.54263 9.77438 3.57491 9.82464 3.61751C9.8749 3.66011 9.91628 3.71219 9.94641 3.77078C9.97654 3.82937 9.99484 3.89332 10.0003 3.95898C10.0057 4.02464 9.9981 4.09073 9.97798 4.15346C9.95786 4.2162 9.92557 4.27436 9.88297 4.32462C9.84038 4.37488 9.78829 4.41626 9.7297 4.44639C9.67111 4.47652 9.60716 4.49482 9.5415 4.50023C8.49625 4.59004 7.49838 4.97653 6.66532 5.61421C5.83226 6.2519 5.19867 7.11425 4.83908 8.09981C4.4795 9.08537 4.40889 10.1531 4.63556 11.1775C4.86223 12.2018 5.37675 13.1401 6.11858 13.8819C6.86041 14.6237 7.79869 15.1383 8.82302 15.3649C9.84735 15.5916 10.9151 15.521 11.9007 15.1614C12.8862 14.8018 13.7486 14.1682 14.3863 13.3352C15.024 12.5021 15.4104 11.5042 15.5003 10.459C15.5112 10.3264 15.5744 10.2035 15.6759 10.1175C15.7774 10.0315 15.9089 9.98929 16.0415 10.0002C16.1741 10.0112 16.2969 10.0743 16.383 10.1758C16.469 10.2774 16.5112 10.4089 16.5003 10.5415ZM9.50025 6.50023V10.0002C9.50025 10.1328 9.55293 10.26 9.6467 10.3538C9.74047 10.4476 9.86765 10.5002 10.0003 10.5002H13.5003C13.6329 10.5002 13.76 10.4476 13.8538 10.3538C13.9476 10.26 14.0003 10.1328 14.0003 10.0002C14.0003 9.86763 13.9476 9.74045 13.8538 9.64668C13.76 9.55291 13.6329 9.50023 13.5003 9.50023H10.5003V6.50023C10.5003 6.36763 10.4476 6.24045 10.3538 6.14668C10.26 6.05291 10.1329 6.00023 10.0003 6.00023C9.86765 6.00023 9.74047 6.05291 9.6467 6.14668C9.55293 6.24045 9.50025 6.36763 9.50025 6.50023ZM12.0003 5.00023C12.1486 5.00023 12.2936 4.95625 12.4169 4.87384C12.5403 4.79142 12.6364 4.67429 12.6932 4.53725C12.7499 4.4002 12.7648 4.2494 12.7358 4.10392C12.7069 3.95843 12.6355 3.82479 12.5306 3.7199C12.4257 3.61501 12.2921 3.54358 12.1466 3.51465C12.0011 3.48571 11.8503 3.50056 11.7132 3.55732C11.5762 3.61409 11.4591 3.71022 11.3767 3.83356C11.2942 3.95689 11.2503 4.1019 11.2503 4.25023C11.2503 4.44915 11.3293 4.63991 11.4699 4.78056C11.6106 4.92122 11.8013 5.00023 12.0003 5.00023ZM14.2503 6.50023C14.3986 6.50023 14.5436 6.45625 14.6669 6.37384C14.7903 6.29143 14.8864 6.17429 14.9432 6.03725C14.9999 5.9002 15.0148 5.7494 14.9858 5.60392C14.9569 5.45843 14.8855 5.32479 14.7806 5.2199C14.6757 5.11501 14.5421 5.04358 14.3966 5.01464C14.2511 4.98571 14.1003 5.00056 13.9632 5.05732C13.8262 5.11409 13.7091 5.21022 13.6267 5.33356C13.5442 5.45689 13.5003 5.6019 13.5003 5.75023C13.5003 5.94915 13.5793 6.13991 13.7199 6.28057C13.8606 6.42122 14.0513 6.50023 14.2503 6.50023ZM15.7503 8.75023C15.8986 8.75023 16.0436 8.70625 16.1669 8.62384C16.2903 8.54143 16.3864 8.42429 16.4432 8.28725C16.4999 8.1502 16.5148 7.9994 16.4858 7.85392C16.4569 7.70843 16.3855 7.57479 16.2806 7.4699C16.1757 7.36501 16.0421 7.29358 15.8966 7.26464C15.7511 7.23571 15.6003 7.25056 15.4632 7.30733C15.3262 7.36409 15.2091 7.46022 15.1267 7.58356C15.0442 7.70689 15.0003 7.8519 15.0003 8.00023C15.0003 8.19915 15.0793 8.38991 15.2199 8.53056C15.3606 8.67122 15.5513 8.75023 15.7503 8.75023Z"
      fill="#16181E"
    />
  </g>
</svg>
