<svg
  width="20"
  height="20"
  viewBox="0 0 20 20"
  fill="none"
  xmlns="http://www.w3.org/2000/svg"
>
  <g id="icon left">
    <path
      id="icon"
      d="M14.854 14.146C14.9005 14.1925 14.9373 14.2476 14.9625 14.3083C14.9876 14.369 15.0006 14.4341 15.0006 14.4998C15.0006 14.5655 14.9876 14.6305 14.9625 14.6912C14.9373 14.7519 14.9005 14.8071 14.854 14.8535C14.8076 14.9 14.7524 14.9368 14.6917 14.962C14.631 14.9871 14.566 15.0001 14.5003 15.0001C14.4346 15.0001 14.3695 14.9871 14.3088 14.962C14.2481 14.9368 14.193 14.9 14.1465 14.8535L10.0003 10.7067L5.85403 14.8535C5.76021 14.9474 5.63296 15.0001 5.50028 15.0001C5.3676 15.0001 5.24035 14.9474 5.14653 14.8535C5.05271 14.7597 5 14.6325 5 14.4998C5 14.3671 5.05271 14.2399 5.14653 14.146L9.2934 9.99979L5.14653 5.85354C5.05271 5.75972 5 5.63247 5 5.49979C5 5.36711 5.05271 5.23986 5.14653 5.14604C5.24035 5.05222 5.3676 4.99951 5.50028 4.99951C5.63296 4.99951 5.76021 5.05222 5.85403 5.14604L10.0003 9.29291L14.1465 5.14604C14.2403 5.05222 14.3676 4.99951 14.5003 4.99951C14.633 4.99951 14.7602 5.05222 14.854 5.14604C14.9478 5.23986 15.0006 5.36711 15.0006 5.49979C15.0006 5.63247 14.9478 5.75972 14.854 5.85354L10.7072 9.99979L14.854 14.146Z"
      fill="#576077"
    />
  </g>
</svg>
