<svg
  width="20"
  height="20"
  viewBox="0 0 20 20"
  fill="none"
  xmlns="http://www.w3.org/2000/svg"
>
  <path
    d="M15.354 5.35403L12.2072 8.50028H14.0003C14.1329 8.50028 14.2601 8.55296 14.3538 8.64672C14.4476 8.74049 14.5003 8.86767 14.5003 9.00028C14.5003 9.13289 14.4476 9.26006 14.3538 9.35383C14.2601 9.4476 14.1329 9.50028 14.0003 9.50028H11.0003C10.8677 9.50028 10.7405 9.4476 10.6467 9.35383C10.553 9.26006 10.5003 9.13289 10.5003 9.00028V6.00028C10.5003 5.86767 10.553 5.74049 10.6467 5.64672C10.7405 5.55296 10.8677 5.50028 11.0003 5.50028C11.1329 5.50028 11.2601 5.55296 11.3538 5.64672C11.4476 5.74049 11.5003 5.86767 11.5003 6.00028V7.7934L14.6465 4.64653C14.7403 4.55271 14.8676 4.5 15.0003 4.5C15.133 4.5 15.2602 4.55271 15.354 4.64653C15.4478 4.74035 15.5006 4.8676 15.5006 5.00028C15.5006 5.13296 15.4478 5.26021 15.354 5.35403ZM9.00028 10.5003H6.00028C5.86767 10.5003 5.74049 10.553 5.64672 10.6467C5.55296 10.7405 5.50028 10.8677 5.50028 11.0003C5.50028 11.1329 5.55296 11.2601 5.64672 11.3538C5.74049 11.4476 5.86767 11.5003 6.00028 11.5003H7.7934L4.64653 14.6465C4.55271 14.7403 4.5 14.8676 4.5 15.0003C4.5 15.133 4.55271 15.2602 4.64653 15.354C4.74035 15.4478 4.8676 15.5006 5.00028 15.5006C5.13296 15.5006 5.26021 15.4478 5.35403 15.354L8.50028 12.2072V14.0003C8.50028 14.1329 8.55296 14.2601 8.64672 14.3538C8.74049 14.4476 8.86767 14.5003 9.00028 14.5003C9.13289 14.5003 9.26006 14.4476 9.35383 14.3538C9.4476 14.2601 9.50028 14.1329 9.50028 14.0003V11.0003C9.50028 10.8677 9.4476 10.7405 9.35383 10.6467C9.26006 10.553 9.13289 10.5003 9.00028 10.5003Z"
    fill="#16181E"
  />
</svg>
