<svg
  width="20"
  height="20"
  viewBox="0 0 20 20"
  fill="none"
  xmlns="http://www.w3.org/2000/svg"
>
  <g id="icon left">
    <path
      id="icon"
      d="M16 11.5V15C16 15.2652 15.8946 15.5196 15.7071 15.7071C15.5196 15.8946 15.2652 16 15 16H5C4.73478 16 4.48043 15.8946 4.29289 15.7071C4.10536 15.5196 4 15.2652 4 15V11.5C4 11.3674 4.05268 11.2402 4.14645 11.1464C4.24021 11.0527 4.36739 11 4.5 11C4.63261 11 4.75979 11.0527 4.85355 11.1464C4.94732 11.2402 5 11.3674 5 11.5V15H15V11.5C15 11.3674 15.0527 11.2402 15.1464 11.1464C15.2402 11.0527 15.3674 11 15.5 11C15.6326 11 15.7598 11.0527 15.8536 11.1464C15.9473 11.2402 16 11.3674 16 11.5ZM9.64625 11.8538C9.69269 11.9002 9.74783 11.9371 9.80853 11.9623C9.86923 11.9874 9.93429 12.0004 10 12.0004C10.0657 12.0004 10.1308 11.9874 10.1915 11.9623C10.2522 11.9371 10.3073 11.9002 10.3538 11.8538L12.8538 9.35375C12.9002 9.3073 12.9371 9.25214 12.9622 9.19145C12.9873 9.13075 13.0003 9.0657 13.0003 9C13.0003 8.9343 12.9873 8.86925 12.9622 8.80855C12.9371 8.74786 12.9002 8.6927 12.8538 8.64625C12.8073 8.59979 12.7521 8.56294 12.6914 8.5378C12.6308 8.51266 12.5657 8.49972 12.5 8.49972C12.4343 8.49972 12.3692 8.51266 12.3086 8.5378C12.2479 8.56294 12.1927 8.59979 12.1462 8.64625L10.5 10.2931V4.5C10.5 4.36739 10.4473 4.24021 10.3536 4.14645C10.2598 4.05268 10.1326 4 10 4C9.86739 4 9.74021 4.05268 9.64645 4.14645C9.55268 4.24021 9.5 4.36739 9.5 4.5V10.2931L7.85375 8.64625C7.75993 8.55243 7.63268 8.49972 7.5 8.49972C7.36732 8.49972 7.24007 8.55243 7.14625 8.64625C7.05243 8.74007 6.99972 8.86732 6.99972 9C6.99972 9.13268 7.05243 9.25993 7.14625 9.35375L9.64625 11.8538Z"
      fill="#576077"
    />
  </g>
</svg>
