<svg xmlns="http://www.w3.org/2000/svg" width="20" height="20" fill="none">
  <path
    fill="#576077"
    d="M14.854 14.146c.0465.0465.0833.1016.1085.1623.0251.0607.0381.1258.0381.1915 0 .0657-.013.1307-.0381.1914-.0252.0607-.062.1159-.1085.1623-.0464.0465-.1016.0833-.1623.1085-.0607.0251-.1257.0381-.1914.0381-.0657 0-.1308-.013-.1915-.0381-.0607-.0252-.1158-.062-.1623-.1085l-4.1462-4.1468-4.14627 4.1468c-.09382.0939-.22107.1466-.35375.1466-.13268 0-.25993-.0527-.35375-.1466C5.05271 14.7597 5 14.6325 5 14.4998s.05271-.2599.14653-.3538L9.2934 9.99979 5.14653 5.85354C5.05271 5.75972 5 5.63247 5 5.49979c0-.13268.05271-.25993.14653-.35375.09382-.09382.22107-.14653.35375-.14653.13268 0 .25993.05271.35375.14653l4.14627 4.14687 4.1462-4.14687c.0938-.09382.2211-.14653.3538-.14653s.2599.05271.3537.14653c.0938.09382.1466.22107.1466.35375 0 .13268-.0528.25993-.1466.35375l-4.1468 4.14625L14.854 14.146Z"
  />
</svg>
