<svg
  width="20"
  height="20"
  viewBox="0 0 20 20"
  fill="none"
  xmlns="http://www.w3.org/2000/svg"
>
  <path
    d="M15.5 5V8C15.5 8.13261 15.4473 8.25979 15.3536 8.35355C15.2598 8.44732 15.1326 8.5 15 8.5C14.8674 8.5 14.7402 8.44732 14.6464 8.35355C14.5527 8.25979 14.5 8.13261 14.5 8V6.20687L11.3538 9.35375C11.2599 9.44757 11.1327 9.50028 11 9.50028C10.8673 9.50028 10.7401 9.44757 10.6462 9.35375C10.5524 9.25993 10.4997 9.13268 10.4997 9C10.4997 8.86732 10.5524 8.74007 10.6462 8.64625L13.7931 5.5H12C11.8674 5.5 11.7402 5.44732 11.6464 5.35355C11.5527 5.25979 11.5 5.13261 11.5 5C11.5 4.86739 11.5527 4.74021 11.6464 4.64645C11.7402 4.55268 11.8674 4.5 12 4.5H15C15.1326 4.5 15.2598 4.55268 15.3536 4.64645C15.4473 4.74021 15.5 4.86739 15.5 5ZM8.64625 10.6462L5.5 13.7931V12C5.5 11.8674 5.44732 11.7402 5.35355 11.6464C5.25979 11.5527 5.13261 11.5 5 11.5C4.86739 11.5 4.74021 11.5527 4.64645 11.6464C4.55268 11.7402 4.5 11.8674 4.5 12V15C4.5 15.1326 4.55268 15.2598 4.64645 15.3536C4.74021 15.4473 4.86739 15.5 5 15.5H8C8.13261 15.5 8.25979 15.4473 8.35355 15.3536C8.44732 15.2598 8.5 15.1326 8.5 15C8.5 14.8674 8.44732 14.7402 8.35355 14.6464C8.25979 14.5527 8.13261 14.5 8 14.5H6.20687L9.35375 11.3538C9.44757 11.2599 9.50028 11.1327 9.50028 11C9.50028 10.8673 9.44757 10.7401 9.35375 10.6462C9.25993 10.5524 9.13268 10.4997 9 10.4997C8.86732 10.4997 8.74007 10.5524 8.64625 10.6462Z"
    fill="#16181E"
  />
</svg>
