<svg
  width="20"
  height="20"
  viewBox="0 0 20 20"
  fill="none"
  xmlns="http://www.w3.org/2000/svg"
>
  <path
    d="M17.04 10.1665C17.04 9.6465 16.9933 9.1465 16.9067 8.6665H10V11.5065H13.9467C13.7733 12.4198 13.2533 13.1932 12.4733 13.7132V15.5598H14.8533C16.24 14.2798 17.04 12.3998 17.04 10.1665Z"
    fill="#4285F4"
  />
  <path
    d="M9.99979 17.3327C11.9798 17.3327 13.6398 16.6794 14.8531 15.5594L12.4731 13.7127C11.8198 14.1527 10.9865 14.4194 9.99979 14.4194C8.09313 14.4194 6.47313 13.1327 5.89313 11.3994H3.45312V13.2927C4.65979 15.6861 7.13312 17.3327 9.99979 17.3327Z"
    fill="#34A853"
  />
  <path
    d="M5.89366 11.3934C5.74699 10.9534 5.66033 10.4867 5.66033 10C5.66033 9.51338 5.74699 9.04671 5.89366 8.60671V6.71338H3.45366C2.95366 7.70005 2.66699 8.81338 2.66699 10C2.66699 11.1867 2.95366 12.3 3.45366 13.2867L5.35366 11.8067L5.89366 11.3934Z"
    fill="#FBBC05"
  />
  <path
    d="M9.99979 5.5865C11.0798 5.5865 12.0398 5.95984 12.8065 6.67984L14.9065 4.57984C13.6331 3.39317 11.9798 2.6665 9.99979 2.6665C7.13312 2.6665 4.65979 4.31317 3.45312 6.71317L5.89313 8.6065C6.47313 6.87317 8.09313 5.5865 9.99979 5.5865Z"
    fill="#EA4335"
  />
</svg>
