<svg
  width="20"
  height="20"
  viewBox="0 0 20 20"
  fill="none"
  xmlns="http://www.w3.org/2000/svg"
>
  <path
    fill-rule="evenodd"
    clip-rule="evenodd"
    d="M12.8065 6.67984C12.0398 5.95984 11.0798 5.5865 9.99979 5.5865C8.09371 5.5865 6.47412 6.87238 5.89366 8.60491V8.60671C5.74699 9.04671 5.66033 9.51338 5.66033 10C5.66033 10.4867 5.74699 10.9534 5.89366 11.3934L5.88577 11.3994H5.89313C6.47313 13.1327 8.09312 14.4194 9.99979 14.4194C10.9865 14.4194 11.8198 14.1527 12.4731 13.7127L12.4735 13.713C13.2534 13.1931 13.7733 12.4198 13.9467 11.5065H10V8.6665H16.9067C16.9933 9.1465 17.04 9.6465 17.04 10.1665C17.04 12.3998 16.24 14.2798 14.8533 15.5598H14.8527C13.6394 16.6796 11.9795 17.3327 9.99979 17.3327C7.13312 17.3327 4.65979 15.6861 3.45312 13.2927V13.2857C2.95345 12.2993 2.66699 11.1863 2.66699 10C2.66699 8.81344 2.95363 7.70016 3.45358 6.71353L3.45312 6.71317C4.65979 4.31317 7.13312 2.6665 9.99979 2.6665C11.9798 2.6665 13.6331 3.39317 14.9065 4.57984L12.8065 6.67984Z"
    fill="#16181E"
  />
</svg>
