<svg xmlns="http://www.w3.org/2000/svg" width="16" height="16" fill="none">
  <g clip-path="url(#a)">
    <path
      fill="#234DEC"
      fill-rule="evenodd"
      d="M2.3144 7.9999c0-2.2493 1.80828-4.07273 4.03891-4.07273 2.23063 0 4.03889 1.82343 4.03889 4.07273s-1.80826 4.0727-4.03889 4.0727c-2.23063 0-4.03891-1.8234-4.03891-4.0727Zm4.03891-5.6c-3.06712 0-5.553505 2.50721-5.553505 5.6 0 3.0928 2.486385 5.6 5.553505 5.6 3.06712 0 5.55349-2.5072 5.55349-5.6 0-3.09279-2.48637-5.6-5.55349-5.6Zm7.15149 5.60013c0 1.51118-.4609 2.91377-1.2487 4.07277h1.7667c.6364-1.2162.9966-2.60206.9966-4.07277 0-1.4707-.3602-2.85656-.9966-4.07272h-1.7667c.7878 1.15892 1.2487 2.56154 1.2487 4.07272Z"
      clip-rule="evenodd"
    />
  </g>
  <defs>
    <clipPath id="a">
      <path fill="#fff" d="M0 0h16v16H0z" />
    </clipPath>
  </defs>
</svg>
