<svg xmlns="http://www.w3.org/2000/svg" width="20" height="20" fill="none">
  <path
    fill="#fff"
    d="M.390625 4C.390625 2.0066 2.0066.390625 4 .390625h12C17.9934.390625 19.6094 2.0066 19.6094 4v12c0 1.9934-1.616 3.6094-3.6094 3.6094H4C2.0066 19.6094.390625 17.9934.390625 16V4Z"
  />
  <path
    stroke="#E2E4EA"
    stroke-width=".78125"
    d="M.390625 4C.390625 2.0066 2.0066.390625 4 .390625h12C17.9934.390625 19.6094 2.0066 19.6094 4v12c0 1.9934-1.616 3.6094-3.6094 3.6094H4C2.0066 19.6094.390625 17.9934.390625 16V4Z"
  />
  <path
    stroke="#234DEC"
    d="M15 10c0 2.7614-2.2386 5-5 5-1.18243 0-2.269-.4104-3.125-1.0966C5.73192 12.987 5 11.579 5 10c0-2.76142 2.23858-5 5-5 2.7614 0 5 2.23858 5 5Z"
  />
</svg>
