<svg
  width="20"
  height="20"
  viewBox="0 0 20 20"
  fill="none"
  xmlns="http://www.w3.org/2000/svg"
>
  <g id="icon left">
    <path
      id="icon"
      fillRule="evenodd"
      clipRule="evenodd"
      d="M2.89324 10C2.89324 7.18837 5.15359 4.90909 7.94188 4.90909C10.7302 4.90909 12.9905 7.18837 12.9905 10C12.9905 12.8116 10.7302 15.0909 7.94188 15.0909C5.15359 15.0909 2.89324 12.8116 2.89324 10ZM7.94188 3C4.10799 3 1 6.13401 1 10C1 13.866 4.10799 17 7.94188 17C11.7758 17 14.8838 13.866 14.8838 10C14.8838 6.13401 11.7758 3 7.94188 3ZM16.8822 10.0001C16.8822 11.8891 16.3061 13.6423 15.3213 15.091H17.5296C18.3251 13.5708 18.7754 11.8385 18.7754 10.0001C18.7754 8.16171 18.3251 6.42939 17.5296 4.90918H15.3213C16.3061 6.35783 16.8822 8.11111 16.8822 10.0001Z"
      fill="#234DEC"
    />
  </g>
</svg>
