<svg width="19" height="16" viewBox="0 0 19 16" fill="none" xmlns="http://www.w3.org/2000/svg">
  <path fill-rule="evenodd" clip-rule="evenodd"
    d="M7.29889 2.64717C4.36721 2.64717 1.99061 5.04366 1.99061 7.99989C1.99061 10.9561 4.36721 13.3526 7.29889 13.3526C10.2306 13.3526 12.6072 10.9561 12.6072 7.99989C12.6072 5.04366 10.2306 2.64717 7.29889 2.64717ZM0 7.99989C0 3.93508 3.26783 0.639893 7.29889 0.639893C11.33 0.639893 14.5978 3.93508 14.5978 7.99989C14.5978 12.0647 11.33 15.3599 7.29889 15.3599C3.26783 15.3599 0 12.0647 0 7.99989Z"
    fill="#969EB0" />
  <path fill-rule="evenodd" clip-rule="evenodd"
    d="M15.0576 13.3524C16.093 11.8293 16.6988 9.98582 16.6988 7.9997C16.6988 6.01358 16.093 4.17013 15.0576 2.64697H17.3795C18.2159 4.24536 18.6894 6.06677 18.6894 7.9997C18.6894 9.93263 18.2159 11.754 17.3795 13.3524H15.0576Z"
    fill="#969EB0" />
</svg>