<svg xmlns="http://www.w3.org/2000/svg" width="86" height="16" fill="none">
  <path
    fill="#2C303C"
    fill-rule="evenodd"
    d="M28.8679.908691c-2.8341 0-4.7363 1.611169-4.7363 3.989569 0 1.99478 1.1603 3.29906 3.4048 3.81694l2.2636.51788c1.3125.30689 1.9021.99742 1.9021 2.09072 0 1.381-1.1603 2.2441-2.9863 2.2441-1.731 0-2.8342-.844-2.8723-2.1674h-1.9021c.1141 2.3784 1.9782 3.8553 4.7744 3.8553 2.9293 0 4.8504-1.592 4.8504-4.0855 0-1.95641-1.1413-3.18396-3.3858-3.70184l-2.2635-.53706c-1.2935-.30689-1.9212-.97821-1.9212-2.09068 0-1.36183 1.1223-2.24413 2.8532-2.24413 1.5407 0 2.5108.80558 2.6059 2.18658h1.8832C33.1858 2.3856 31.4929.908691 28.8679.908691ZM51.6408 5.6463h1.3695V4.15021c0-2.30167 1.2555-3.241519 2.9484-3.241519.3423 0 .7418.019182 1.1032.076723V2.53904h-.7989c-1.1603 0-1.4646.5946-1.4646 1.61117V5.6463h2.2064v1.51527h-2.2064v7.86403h-1.7881V7.16157h-1.3695V5.6463Zm5.892 6.7708c0 1.707 1.1793 2.8387 3.1766 2.8387 1.5027 0 2.7771-.6713 3.2526-1.7454l.1903 1.5152h1.5217V9.13717c0-2.53184-1.5598-3.75939-3.8614-3.75939-2.3967 0-3.9945 1.2851-3.9945 3.24152h1.5598c0-1.13166.856-1.80298 2.3586-1.80298 1.2555 0 2.1875.55624 2.1875 2.12905v.26853l-2.9293.23016c-2.1874.17263-3.4619 1.24674-3.4619 2.97304Zm6.4102-1.4386c0 1.7646-1.0271 2.8771-2.72 2.8771-1.1603 0-1.8831-.4987-1.8831-1.4961 0-.9207.6467-1.5344 2.2255-1.6879l2.3776-.1918v.4987Zm3.218-.6329c0-2.93468 1.8451-4.96782 4.5652-4.96782 2.3396 0 3.9754 1.34264 4.2988 3.43332h-1.788c-.3044-1.18919-1.2554-1.82215-2.4538-1.82215-1.6929 0-2.8532 1.30428-2.8532 3.33745 0 2.0139 1.0842 3.3182 2.7771 3.3182 1.2745 0 2.2255-.6713 2.5489-1.7838h1.788c-.3614 2.0332-2.0923 3.395-4.3369 3.395-2.739 0-4.5461-1.9564-4.5461-4.9102Zm14.4026 4.9102c-2.739 0-4.6222-1.9948-4.6222-4.9102 0-2.93468 1.8451-4.96782 4.5462-4.96782 2.6439 0 4.3749 1.84133 4.3749 4.62252v.6713l-7.1901.0192c.1331 1.9756 1.1603 3.0689 2.9293 3.0689 1.3885 0 2.3016-.5754 2.6059-1.6495h1.6739c-.4565 2.0139-2.0163 3.1456-4.3179 3.1456Zm-.076-8.36276c-1.5598 0-2.5489.93985-2.7772 2.58938h5.3641c0-1.55362-1.0082-2.58938-2.5869-2.58938Zm-30.5258.32607V5.56958c-.3614-.07672-.6277-.11508-.951-.11508-1.2745 0-2.2065.65214-2.5869 1.63035l-.1142-1.41937h-1.6739v9.36012h1.7881v-4.9678c0-1.80294 1.0461-2.83869 2.739-2.83869h.7989ZM41.6531 5.6463h1.769v9.3793h-1.5978l-.1902-1.4193c-.5326.9782-1.769 1.6495-3.1385 1.6495-2.1685 0-3.3858-1.4769-3.3858-3.7786V5.6463h1.788v5.2363c0 2.014.8559 2.7812 2.2255 2.7812 1.6358 0 2.5298-1.0549 2.5298-3.0689V5.6463Z"
    clip-rule="evenodd"
  />
  <path
    fill="#969EB0"
    fill-rule="evenodd"
    d="M7.29889 2.64741c-2.93168 0-5.30828 2.3965-5.30828 5.35273 0 2.95626 2.3766 5.35276 5.30828 5.35276 2.93171 0 5.30831-2.3965 5.30831-5.35276 0-2.95623-2.3766-5.35273-5.30831-5.35273ZM0 8.00014C0 3.93532 3.26783.640137 7.29889.640137c4.03111 0 7.29891 3.295183 7.29891 7.360003 0 4.06486-3.2678 7.35996-7.29891 7.35996C3.26783 15.3601 0 12.065 0 8.00014Zm15.0586 5.35276c1.0354-1.5231 1.6412-3.36659 1.6412-5.35271s-.6058-3.82957-1.6412-5.35273h2.3219c.8364 1.59839 1.3099 3.4198 1.3099 5.35273 0 1.93293-.4735 3.75431-1.3099 5.35271h-2.3219Z"
    clip-rule="evenodd"
  />
</svg>
