<svg width="20" height="20" viewBox="0 0 20 20" fill="none" xmlns="http://www.w3.org/2000/svg">
  <path
    d="M9.5 5.5V8.5C9.5 8.76522 9.39464 9.01957 9.20711 9.20711C9.01957 9.39464 8.76522 9.5 8.5 9.5H5.5C5.23478 9.5 4.98043 9.39464 4.79289 9.20711C4.60536 9.01957 4.5 8.76522 4.5 8.5V5.5C4.5 5.23478 4.60536 4.98043 4.79289 4.79289C4.98043 4.60536 5.23478 4.5 5.5 4.5H8.5C8.76522 4.5 9.01957 4.60536 9.20711 4.79289C9.39464 4.98043 9.5 5.23478 9.5 5.5ZM14.5 4.5H11.5C11.2348 4.5 10.9804 4.60536 10.7929 4.79289C10.6054 4.98043 10.5 5.23478 10.5 5.5V8.5C10.5 8.76522 10.6054 9.01957 10.7929 9.20711C10.9804 9.39464 11.2348 9.5 11.5 9.5H14.5C14.7652 9.5 15.0196 9.39464 15.2071 9.20711C15.3946 9.01957 15.5 8.76522 15.5 8.5V5.5C15.5 5.23478 15.3946 4.98043 15.2071 4.79289C15.0196 4.60536 14.7652 4.5 14.5 4.5ZM8.5 10.5H5.5C5.23478 10.5 4.98043 10.6054 4.79289 10.7929C4.60536 10.9804 4.5 11.2348 4.5 11.5V14.5C4.5 14.7652 4.60536 15.0196 4.79289 15.2071C4.98043 15.3946 5.23478 15.5 5.5 15.5H8.5C8.76522 15.5 9.01957 15.3946 9.20711 15.2071C9.39464 15.0196 9.5 14.7652 9.5 14.5V11.5C9.5 11.2348 9.39464 10.9804 9.20711 10.7929C9.01957 10.6054 8.76522 10.5 8.5 10.5ZM14.5 10.5H11.5C11.2348 10.5 10.9804 10.6054 10.7929 10.7929C10.6054 10.9804 10.5 11.2348 10.5 11.5V14.5C10.5 14.7652 10.6054 15.0196 10.7929 15.2071C10.9804 15.3946 11.2348 15.5 11.5 15.5H14.5C14.7652 15.5 15.0196 15.3946 15.2071 15.2071C15.3946 15.0196 15.5 14.7652 15.5 14.5V11.5C15.5 11.2348 15.3946 10.9804 15.2071 10.7929C15.0196 10.6054 14.7652 10.5 14.5 10.5Z"
    fill="#D2E0FF" />
</svg>