<svg width="20" height="20" viewBox="0 0 20 20" fill="none" xmlns="http://www.w3.org/2000/svg">
  <path d="M13.5 4.29857L14 16L10 15.4783H6V9.73913L6.5 4L10.5001 4.29857H13.5Z" fill="#576077" fill-opacity="0.05" />
  <path fill-rule="evenodd" clip-rule="evenodd"
    d="M6.74408 4.74408C6.90036 4.5878 7.11232 4.5 7.33333 4.5H12.6667C12.8877 4.5 13.0996 4.5878 13.2559 4.74408C13.4122 4.90036 13.5 5.11232 13.5 5.33333V8H14.5V5.33333C14.5 4.8471 14.3068 4.38079 13.963 4.03697C13.6192 3.69315 13.1529 3.5 12.6667 3.5H7.33333C6.8471 3.5 6.38079 3.69315 6.03697 4.03697C5.69315 4.38079 5.5 4.8471 5.5 5.33333V15.5H4C3.72386 15.5 3.5 15.7239 3.5 16C3.5 16.2761 3.72386 16.5 4 16.5H16C16.2761 16.5 16.5 16.2761 16.5 16C16.5 15.7239 16.2761 15.5 16 15.5H14.5V13H13.5V15.5H6.5V5.33333C6.5 5.11232 6.5878 4.90036 6.74408 4.74408ZM11.8333 10.5C11.8333 10.2239 11.6095 10 11.3333 10C11.0572 10 10.8333 10.2239 10.8333 10.5V10.5067C10.8333 10.7828 11.0572 11.0067 11.3333 11.0067C11.6095 11.0067 11.8333 10.7828 11.8333 10.5067V10.5Z"
    fill="#16181E" />
  <path fill-rule="evenodd" clip-rule="evenodd"
    d="M15.1464 8.64645C15.3417 8.45118 15.6583 8.45118 15.8536 8.64645L17.3536 10.1464C17.5488 10.3417 17.5488 10.6583 17.3536 10.8536L15.8536 12.3536C15.6583 12.5488 15.3417 12.5488 15.1464 12.3536C14.9512 12.1583 14.9512 11.8417 15.1464 11.6464L15.7929 11H13.5C13.2239 11 13 10.7761 13 10.5C13 10.2239 13.2239 10 13.5 10H15.7929L15.1464 9.35355C14.9512 9.15829 14.9512 8.84171 15.1464 8.64645Z"
    fill="#16181E" />
</svg>