<svg width="20" height="20" viewBox="0 0 20 20" fill="none" xmlns="http://www.w3.org/2000/svg">
  <path d="M13.5 4.29857L14 16L10 15.4783H6V9.73913L6.5 4L10.5001 4.29857H13.5Z" fill="#576077" fill-opacity="0.05" />
  <path fill-rule="evenodd" clip-rule="evenodd"
    d="M13.2559 4.74408C13.0996 4.5878 12.8877 4.5 12.6667 4.5H7.33333C7.11232 4.5 6.90036 4.5878 6.74408 4.74408C6.5878 4.90036 6.5 5.11232 6.5 5.33333V8H5.5V5.33333C5.5 4.8471 5.69315 4.38079 6.03697 4.03697C6.38079 3.69315 6.8471 3.5 7.33333 3.5H12.6667C13.1529 3.5 13.6192 3.69315 13.963 4.03697C14.3068 4.38079 14.5 4.8471 14.5 5.33333V15.5H16C16.2761 15.5 16.5 15.7239 16.5 16C16.5 16.2761 16.2761 16.5 16 16.5H4C3.72386 16.5 3.5 16.2761 3.5 16C3.5 15.7239 3.72386 15.5 4 15.5H5.5V13H6.5V15.5H13.5V5.33333C13.5 5.11232 13.4122 4.90036 13.2559 4.74408ZM8.16667 10.5C8.16667 10.2239 8.39052 10 8.66667 10C8.94281 10 9.16667 10.2239 9.16667 10.5V10.5067C9.16667 10.7828 8.94281 11.0067 8.66667 11.0067C8.39052 11.0067 8.16667 10.7828 8.16667 10.5067V10.5Z"
    fill="#16181E" />
  <path fill-rule="evenodd" clip-rule="evenodd"
    d="M4.64645 8.64645C4.84171 8.45118 5.15829 8.45118 5.35355 8.64645L6.85355 10.1464C7.04882 10.3417 7.04882 10.6583 6.85355 10.8536L5.35355 12.3536C5.15829 12.5488 4.84171 12.5488 4.64645 12.3536C4.45118 12.1583 4.45118 11.8417 4.64645 11.6464L5.29289 11H3C2.72386 11 2.5 10.7761 2.5 10.5C2.5 10.2239 2.72386 10 3 10H5.29289L4.64645 9.35355C4.45118 9.15829 4.45118 8.84171 4.64645 8.64645Z"
    fill="#16181E" />
</svg>