<svg width="20" height="20" viewBox="0 0 20 20" fill="none" xmlns="http://www.w3.org/2000/svg">
  <path
    d="M13.2972 8.5471L14.7503 10.0002L9.62155 15.1215C9.0574 15.6765 8.29677 15.9861 7.50536 15.9829C6.71395 15.9797 5.95587 15.6639 5.39626 15.1043C4.83664 14.5447 4.52083 13.7866 4.5176 12.9952C4.51438 12.2038 4.82401 11.4431 5.37905 10.879L11.5859 4.58585C11.961 4.21074 12.4698 4 13.0003 4C13.5308 4 14.0396 4.21074 14.4147 4.58585C14.7898 4.96097 15.0005 5.46973 15.0005 6.00023C15.0005 6.53072 14.7898 7.03949 14.4147 7.4146L13.2972 8.5471Z"
    fill="#576077" fill-opacity="0.05" />
  <path
    d="M15.1035 9.64644C15.15 9.69288 15.1869 9.74802 15.2121 9.80872C15.2372 9.86942 15.2502 9.93449 15.2502 10.0002C15.2502 10.0659 15.2372 10.131 15.2121 10.1917C15.1869 10.2524 15.15 10.3075 15.1035 10.3539L9.9754 15.4789C9.31891 16.1354 8.42854 16.5041 7.50018 16.504C6.57181 16.504 5.6815 16.1351 5.02509 15.4786C4.36868 14.8221 3.99994 13.9318 4 13.0034C4.00006 12.075 4.36891 11.1847 5.0254 10.5283L11.2291 4.23332C11.6978 3.76413 12.3337 3.50035 12.9969 3.5C13.6601 3.49965 14.2962 3.76276 14.7654 4.23144C15.2346 4.70013 15.4984 5.33601 15.4987 5.99918C15.4991 6.66236 15.236 7.29851 14.7673 7.76769L8.56227 14.0627C8.28048 14.3445 7.89829 14.5028 7.49977 14.5028C7.10126 14.5028 6.71907 14.3445 6.43727 14.0627C6.15548 13.7809 5.99717 13.3987 5.99717 13.0002C5.99717 12.6017 6.15548 12.2195 6.43727 11.9377L11.6435 6.64894C11.6891 6.60029 11.744 6.56126 11.8049 6.53413C11.8658 6.50701 11.9316 6.49234 11.9982 6.491C12.0649 6.48966 12.1312 6.50166 12.1931 6.52632C12.2551 6.55097 12.3115 6.58776 12.359 6.63454C12.4066 6.68132 12.4443 6.73713 12.4699 6.79869C12.4955 6.86025 12.5086 6.92632 12.5083 6.993C12.508 7.05969 12.4944 7.12564 12.4683 7.18698C12.4421 7.24833 12.4039 7.30382 12.356 7.35019L7.14915 12.6446C7.10253 12.6908 7.06548 12.7458 7.04011 12.8064C7.01473 12.8669 7.00154 12.9319 7.00128 12.9976C7.00102 13.0632 7.01369 13.1283 7.03858 13.1891C7.06347 13.2499 7.10009 13.3051 7.14634 13.3518C7.19259 13.3984 7.24757 13.4354 7.30814 13.4608C7.36871 13.4862 7.43368 13.4994 7.49935 13.4996C7.56502 13.4999 7.63009 13.4872 7.69086 13.4623C7.75163 13.4374 7.80691 13.4008 7.85352 13.3546L14.0579 7.06269C14.3397 6.78148 14.4982 6.39985 14.4986 6.00174C14.4991 5.60364 14.3413 5.22167 14.0601 4.93988C13.7789 4.65809 13.3972 4.49955 12.9991 4.49914C12.601 4.49873 12.2191 4.65648 11.9373 4.93769L5.73477 11.2302C5.50242 11.4622 5.31803 11.7377 5.19214 12.0409C5.06624 12.3442 5.00131 12.6692 5.00105 12.9976C5.00079 13.3259 5.0652 13.6511 5.19061 13.9545C5.31602 14.258 5.49997 14.5338 5.73196 14.7661C5.96395 14.9985 6.23943 15.1829 6.54268 15.3088C6.84593 15.4347 7.17101 15.4996 7.49935 15.4999C7.82769 15.5001 8.15287 15.4357 8.45632 15.3103C8.75977 15.1849 9.03554 15.0009 9.2679 14.7689L14.3967 9.64394C14.4907 9.55058 14.6181 9.49839 14.7506 9.49886C14.8832 9.49933 15.0101 9.55241 15.1035 9.64644Z"
    fill="#16181E" />
</svg>