<svg width="20" height="20" viewBox="0 0 20 20" fill="none" xmlns="http://www.w3.org/2000/svg">
  <g id="icon">
    <path id="splash"
      d="M14 8C14 8.79113 13.7654 9.56448 13.3259 10.2223C12.8864 10.8801 12.2616 11.3928 11.5307 11.6955C10.7998 11.9983 9.99556 12.0775 9.21964 11.9231C8.44372 11.7688 7.73098 11.3878 7.17157 10.8284C6.61216 10.269 6.2312 9.55629 6.07686 8.78036C5.92252 8.00444 6.00173 7.20017 6.30448 6.46927C6.60723 5.73836 7.11992 5.11365 7.77772 4.67412C8.43552 4.2346 9.20888 4 10 4C11.0609 4 12.0783 4.42143 12.8284 5.17157C13.5786 5.92172 14 6.93913 14 8Z"
      fill="#576077" fill-opacity="0.05" />
    <path id="icon_2"
      d="M16.4329 15.2517C15.481 13.6061 14.0142 12.4261 12.3023 11.8667C13.1491 11.3626 13.8069 10.5945 14.1749 9.68032C14.5429 8.76614 14.6006 7.75645 14.3392 6.8063C14.0778 5.85615 13.5117 5.01807 12.7279 4.42078C11.9441 3.82349 10.9859 3.5 10.0004 3.5C9.01496 3.5 8.05674 3.82349 7.27293 4.42078C6.48911 5.01807 5.92304 5.85615 5.66163 6.8063C5.40022 7.75645 5.45793 8.76614 5.82591 9.68032C6.19388 10.5945 6.85177 11.3626 7.69854 11.8667C5.98666 12.4255 4.51979 13.6055 3.56791 15.2517C3.53301 15.3086 3.50985 15.372 3.49982 15.438C3.48978 15.504 3.49307 15.5713 3.50949 15.636C3.52591 15.7008 3.55512 15.7615 3.59541 15.8148C3.63569 15.868 3.68624 15.9127 3.74405 15.9461C3.80187 15.9795 3.86579 16.0009 3.93204 16.0092C3.9983 16.0175 4.06554 16.0125 4.1298 15.9943C4.19407 15.9762 4.25405 15.9454 4.30622 15.9038C4.35838 15.8621 4.40168 15.8104 4.43354 15.7517C5.61104 13.7167 7.69229 12.5017 10.0004 12.5017C12.3085 12.5017 14.3898 13.7167 15.5673 15.7517C15.5992 15.8104 15.6424 15.8621 15.6946 15.9038C15.7468 15.9454 15.8068 15.9762 15.871 15.9943C15.9353 16.0125 16.0025 16.0175 16.0688 16.0092C16.135 16.0009 16.199 15.9795 16.2568 15.9461C16.3146 15.9127 16.3651 15.868 16.4054 15.8148C16.4457 15.7615 16.4749 15.7008 16.4913 15.636C16.5078 15.5713 16.511 15.504 16.501 15.438C16.491 15.372 16.4678 15.3086 16.4329 15.2517ZM6.50041 8.0017C6.50041 7.30947 6.70569 6.63278 7.09027 6.05721C7.47485 5.48163 8.02148 5.03303 8.66102 4.76812C9.30056 4.50322 10.0043 4.4339 10.6832 4.56895C11.3622 4.704 11.9858 5.03734 12.4753 5.52683C12.9648 6.01631 13.2981 6.63995 13.4332 7.31888C13.5682 7.99782 13.4989 8.70155 13.234 9.34109C12.9691 9.98063 12.5205 10.5273 11.9449 10.9118C11.3693 11.2964 10.6926 11.5017 10.0004 11.5017C9.07246 11.5007 8.1828 11.1316 7.52664 10.4755C6.87047 9.81932 6.50141 8.92965 6.50041 8.0017Z"
      fill="#576077" />
  </g>
</svg>