<svg width="20" height="20" viewBox="0 0 20 20" fill="currentColor" xmlns="http://www.w3.org/2000/svg">
  <path
    d="M15.25 7C14.9039 7 14.5655 7.10264 14.2778 7.29493C13.99 7.48722 13.7657 7.76053 13.6332 8.0803C13.5008 8.40008 13.4661 8.75194 13.5336 9.09141C13.6012 9.43088 13.7678 9.7427 14.0126 9.98744C14.2573 10.2322 14.5691 10.3989 14.9086 10.4664C15.2481 10.5339 15.5999 10.4992 15.9197 10.3668C16.2395 10.2343 16.5128 10.01 16.7051 9.72225C16.8974 9.43446 17 9.09612 17 8.75C17 8.28587 16.8156 7.84075 16.4874 7.51256C16.1592 7.18438 15.7141 7 15.25 7ZM15.25 9.5C15.1017 9.5 14.9567 9.45601 14.8333 9.3736C14.71 9.29119 14.6139 9.17406 14.5571 9.03701C14.5003 8.89997 14.4855 8.74917 14.5144 8.60368C14.5434 8.4582 14.6148 8.32456 14.7197 8.21967C14.8246 8.11478 14.9582 8.04335 15.1037 8.01441C15.2492 7.98547 15.4 8.00033 15.537 8.05709C15.6741 8.11386 15.7912 8.20999 15.8736 8.33332C15.956 8.45666 16 8.60166 16 8.75C16 8.94891 15.921 9.13968 15.7803 9.28033C15.6397 9.42098 15.4489 9.5 15.25 9.5ZM6.5 8.75C6.5 8.40388 6.39737 8.06554 6.20507 7.77775C6.01278 7.48997 5.73947 7.26566 5.4197 7.13321C5.09993 7.00076 4.74806 6.9661 4.40859 7.03363C4.06913 7.10115 3.75731 7.26782 3.51256 7.51256C3.26782 7.75731 3.10115 8.06913 3.03363 8.40859C2.9661 8.74806 3.00076 9.09993 3.13321 9.4197C3.26566 9.73947 3.48997 10.0128 3.77775 10.2051C4.06554 10.3974 4.40388 10.5 4.75 10.5C5.21413 10.5 5.65925 10.3156 5.98744 9.98744C6.31563 9.65925 6.5 9.21413 6.5 8.75ZM4.75 9.5C4.60166 9.5 4.45666 9.45601 4.33332 9.3736C4.20999 9.29119 4.11386 9.17406 4.05709 9.03701C4.00033 8.89997 3.98547 8.74917 4.01441 8.60368C4.04335 8.4582 4.11478 8.32456 4.21967 8.21967C4.32456 8.11478 4.4582 8.04335 4.60368 8.01441C4.74917 7.98547 4.89997 8.00033 5.03701 8.05709C5.17406 8.11386 5.29119 8.20999 5.3736 8.33332C5.45601 8.45666 5.5 8.60166 5.5 8.75C5.5 8.94891 5.42098 9.13968 5.28033 9.28033C5.13968 9.42098 4.94891 9.5 4.75 9.5ZM7.75 7.5C8.09612 7.5 8.43446 7.39737 8.72225 7.20507C9.01004 7.01278 9.23434 6.73947 9.36679 6.4197C9.49924 6.09993 9.5339 5.74806 9.46638 5.40859C9.39885 5.06913 9.23218 4.75731 8.98744 4.51256C8.7427 4.26782 8.43088 4.10115 8.09141 4.03363C7.75194 3.9661 7.40008 4.00076 7.08031 4.13321C6.76053 4.26566 6.48722 4.48997 6.29493 4.77775C6.10264 5.06554 6 5.40388 6 5.75C6 6.21413 6.18438 6.65925 6.51256 6.98744C6.84075 7.31563 7.28587 7.5 7.75 7.5ZM7.75 5C7.89834 5 8.04334 5.04399 8.16668 5.1264C8.29002 5.20881 8.38615 5.32594 8.44291 5.46299C8.49968 5.60003 8.51453 5.75083 8.48559 5.89632C8.45665 6.0418 8.38522 6.17544 8.28033 6.28033C8.17544 6.38522 8.0418 6.45665 7.89632 6.48559C7.75083 6.51453 7.60003 6.49968 7.46299 6.44291C7.32594 6.38614 7.20881 6.29001 7.1264 6.16668C7.04399 6.04334 7 5.89834 7 5.75C7 5.55109 7.07902 5.36032 7.21967 5.21967C7.36032 5.07902 7.55109 5 7.75 5ZM12.25 7.5C12.5961 7.5 12.9345 7.39737 13.2222 7.20507C13.51 7.01278 13.7343 6.73947 13.8668 6.4197C13.9992 6.09993 14.0339 5.74806 13.9664 5.40859C13.8989 5.06913 13.7322 4.75731 13.4874 4.51256C13.2427 4.26782 12.9309 4.10115 12.5914 4.03363C12.2519 3.9661 11.9001 4.00076 11.5803 4.13321C11.2605 4.26566 10.9872 4.48997 10.7949 4.77775C10.6026 5.06554 10.5 5.40388 10.5 5.75C10.5 6.21413 10.6844 6.65925 11.0126 6.98744C11.3408 7.31563 11.7859 7.5 12.25 7.5ZM12.25 5C12.3983 5 12.5433 5.04399 12.6667 5.1264C12.79 5.20881 12.8861 5.32594 12.9429 5.46299C12.9997 5.60003 13.0145 5.75083 12.9856 5.89632C12.9567 6.0418 12.8852 6.17544 12.7803 6.28033C12.6754 6.38522 12.5418 6.45665 12.3963 6.48559C12.2508 6.51453 12.1 6.49968 11.963 6.44291C11.8259 6.38614 11.7088 6.29001 11.6264 6.16668C11.544 6.04334 11.5 5.89834 11.5 5.75C11.5 5.55109 11.579 5.36032 11.7197 5.21967C11.8603 5.07902 12.0511 5 12.25 5ZM13.695 11.3038C13.441 11.1636 13.2172 10.9748 13.0363 10.7481C12.8553 10.5214 12.7209 10.2612 12.6406 9.9825C12.4744 9.41078 12.1271 8.90846 11.6509 8.55102C11.1747 8.19359 10.5954 8.00035 10 8.00035C9.4046 8.00035 8.82528 8.19359 8.34911 8.55102C7.87293 8.90846 7.52562 9.41078 7.35938 9.9825C7.19878 10.5434 6.8223 11.0176 6.3125 11.3013C5.82345 11.5659 5.43658 11.986 5.21308 12.4952C4.98958 13.0043 4.94221 13.5735 5.07845 14.1126C5.2147 14.6517 5.52679 15.13 5.96536 15.4718C6.40393 15.8136 6.94395 15.9995 7.5 16C7.83323 16.001 8.16319 15.9344 8.47 15.8044C9.44817 15.401 10.5462 15.401 11.5244 15.8044C12.1168 16.0621 12.7861 16.0804 13.3917 15.8554C13.9974 15.6305 14.4925 15.1799 14.7732 14.598C15.0539 14.016 15.0984 13.3481 14.8974 12.734C14.6964 12.12 14.2655 11.6077 13.695 11.3044V11.3038ZM12.5 15C12.297 15.0002 12.0961 14.9591 11.9094 14.8794C10.6848 14.3735 9.30961 14.3735 8.085 14.8794C7.72913 15.0326 7.32776 15.0422 6.96498 14.9061C6.6022 14.77 6.30615 14.4988 6.13885 14.1494C5.97154 13.7999 5.94595 13.3992 6.06745 13.0313C6.18895 12.6634 6.4481 12.3567 6.79063 12.1756C7.1589 11.9722 7.48347 11.6983 7.74579 11.3693C8.0081 11.0404 8.20301 10.663 8.31938 10.2588C8.42504 9.89475 8.64603 9.57489 8.94911 9.34727C9.25219 9.11966 9.62097 8.9966 10 8.9966C10.379 8.9966 10.7478 9.11966 11.0509 9.34727C11.354 9.57489 11.575 9.89475 11.6806 10.2588C11.7974 10.6638 11.9929 11.0418 12.256 11.3712C12.519 11.7005 12.8445 11.9748 13.2138 12.1781C13.5086 12.3363 13.7422 12.5885 13.8772 12.8947C14.0123 13.2009 14.041 13.5434 13.959 13.8678C13.8769 14.1922 13.6888 14.4799 13.4244 14.6851C13.16 14.8902 12.8346 15.0011 12.5 15Z"
    fill="#16181E" />
</svg>