<svg width="20" height="20" viewBox="0 0 20 20" fill="none" xmlns="http://www.w3.org/2000/svg">
  <g id="icon left">
    <path id="icon"
      d="M15.4169 6.5H14.5V4.5C14.5 4.36739 14.4473 4.24021 14.3536 4.14645C14.2598 4.05268 14.1326 4 14 4H6C5.86739 4 5.74021 4.05268 5.64645 4.14645C5.55268 4.24021 5.5 4.36739 5.5 4.5V6.5H4.58313C3.71 6.5 3 7.17313 3 8V13C3 13.1326 3.05268 13.2598 3.14645 13.3536C3.24021 13.4473 3.36739 13.5 3.5 13.5H5.5V15.5C5.5 15.6326 5.55268 15.7598 5.64645 15.8536C5.74021 15.9473 5.86739 16 6 16H14C14.1326 16 14.2598 15.9473 14.3536 15.8536C14.4473 15.7598 14.5 15.6326 14.5 15.5V13.5H16.5C16.6326 13.5 16.7598 13.4473 16.8536 13.3536C16.9473 13.2598 17 13.1326 17 13V8C17 7.17313 16.29 6.5 15.4169 6.5ZM6.5 5H13.5V6.5H6.5V5ZM13.5 15H6.5V12H13.5V15ZM16 12.5H14.5V11.5C14.5 11.3674 14.4473 11.2402 14.3536 11.1464C14.2598 11.0527 14.1326 11 14 11H6C5.86739 11 5.74021 11.0527 5.64645 11.1464C5.55268 11.2402 5.5 11.3674 5.5 11.5V12.5H4V8C4 7.72438 4.26188 7.5 4.58313 7.5H15.4169C15.7381 7.5 16 7.72438 16 8V12.5ZM14.5 9.25C14.5 9.39834 14.456 9.54334 14.3736 9.66668C14.2912 9.79001 14.1741 9.88614 14.037 9.94291C13.9 9.99968 13.7492 10.0145 13.6037 9.98559C13.4582 9.95665 13.3246 9.88522 13.2197 9.78033C13.1148 9.67544 13.0434 9.5418 13.0144 9.39632C12.9855 9.25083 13.0003 9.10003 13.0571 8.96299C13.1139 8.82594 13.21 8.70881 13.3333 8.6264C13.4567 8.54399 13.6017 8.5 13.75 8.5C13.9489 8.5 14.1397 8.57902 14.2803 8.71967C14.421 8.86032 14.5 9.05109 14.5 9.25Z"
      fill="#576077" />
  </g>
</svg>