<svg width="20" height="20" viewBox="0 0 20 20" fill="none" xmlns="http://www.w3.org/2000/svg">
  <path fill-rule="evenodd" clip-rule="evenodd"
    d="M16.236 14.1668C17.0601 12.9334 17.5 11.4834 17.5 10C17.5 9.01509 17.306 8.03982 16.9291 7.12988C16.5522 6.21993 15.9997 5.39314 15.3033 4.6967C14.6069 4.00026 13.7801 3.44781 12.8701 3.0709C11.9602 2.69399 10.9849 2.5 10 2.5C8.51664 2.5 7.0666 2.93987 5.83323 3.76398C4.59986 4.58809 3.63856 5.75943 3.07091 7.12987C2.50325 8.50032 2.35472 10.0083 2.64411 11.4632C2.9335 12.918 3.64781 14.2544 4.6967 15.3033C5.7456 16.3522 7.08197 17.0665 8.53683 17.3559C9.99168 17.6453 11.4997 17.4968 12.8701 16.9291C14.2406 16.3614 15.4119 15.4001 16.236 14.1668ZM16.2625 10C16.2625 9.1776 16.1005 8.36325 15.7858 7.60345C15.4711 6.84364 15.0098 6.15327 14.4283 5.57174C13.8467 4.99022 13.1564 4.52892 12.3966 4.2142C11.6368 3.89948 10.8224 3.7375 10 3.7375C8.7614 3.7375 7.55061 4.10479 6.52074 4.79292C5.49088 5.48105 4.6882 6.45912 4.21421 7.60345C3.74021 8.74777 3.6162 10.0069 3.85784 11.2218C4.09948 12.4366 4.69592 13.5524 5.57175 14.4283C6.44757 15.3041 7.56344 15.9005 8.77825 16.1422C9.99306 16.3838 11.2522 16.2598 12.3966 15.7858C13.5409 15.3118 14.5189 14.5091 15.2071 13.4793C15.8952 12.4494 16.2625 11.2386 16.2625 10Z"
    fill="#C4C9D5" />
  <path
    d="M10 2.5C10.9849 2.5 11.9602 2.69399 12.8701 3.0709C13.7801 3.44781 14.6069 4.00026 15.3033 4.6967C15.9997 5.39314 16.5522 6.21993 16.9291 7.12988C17.306 8.03982 17.5 9.01509 17.5 10L16.2625 10C16.2625 9.1776 16.1005 8.36325 15.7858 7.60345C15.4711 6.84364 15.0098 6.15327 14.4283 5.57174C13.8467 4.99022 13.1564 4.52892 12.3966 4.2142C11.6368 3.89948 10.8224 3.7375 10 3.7375V2.5Z"
    fill="#234DEC" />
  <path
    d="M17.5 10C17.5 10.9849 17.306 11.9602 16.9291 12.8701C16.5522 13.7801 15.9997 14.6069 15.3033 15.3033C14.6069 15.9997 13.7801 16.5522 12.8701 16.9291C11.9602 17.306 10.9849 17.5 10 17.5L10 16.2625C10.8224 16.2625 11.6368 16.1005 12.3966 15.7858C13.1564 15.4711 13.8467 15.0098 14.4283 14.4283C15.0098 13.8467 15.4711 13.1564 15.7858 12.3966C16.1005 11.6368 16.2625 10.8224 16.2625 10L17.5 10Z"
    fill="#234DEC" />
  <path
    d="M10 17.5C9.01509 17.5 8.03982 17.306 7.12987 16.9291C6.21993 16.5522 5.39314 15.9997 4.6967 15.3033C4.00026 14.6069 3.44781 13.7801 3.0709 12.8701C2.69399 11.9602 2.5 10.9849 2.5 10L3.7375 10C3.7375 10.8224 3.89949 11.6368 4.2142 12.3966C4.52892 13.1564 4.99022 13.8467 5.57174 14.4283C6.15327 15.0098 6.84364 15.4711 7.60345 15.7858C8.36325 16.1005 9.1776 16.2625 10 16.2625L10 17.5Z"
    fill="#234DEC" />
  <path
    d="M2.5 10C2.5 9.01509 2.69399 8.03982 3.0709 7.12987C3.44781 6.21993 4.00026 5.39314 4.6967 4.6967C5.39314 4.00026 6.21993 3.44781 7.12987 3.0709C8.03982 2.69399 9.01509 2.5 10 2.5L10 3.7375C9.1776 3.7375 8.36325 3.89948 7.60345 4.2142C6.84364 4.52892 6.15327 4.99022 5.57174 5.57174C4.99022 6.15327 4.52892 6.84364 4.2142 7.60344C3.89948 8.36325 3.7375 9.1776 3.7375 10L2.5 10Z"
    fill="#234DEC" />
</svg>