<svg width="20" height="20" viewBox="0 0 20 20" fill="none" xmlns="http://www.w3.org/2000/svg">
  <circle cx="10" cy="10" r="7" stroke="#969EB0" stroke-dasharray="2 2" />
  <path
    d="M10.5654 10L11.8828 8.68315C11.92 8.64599 11.9494 8.60187 11.9695 8.55332C11.9896 8.50477 12 8.45273 12 8.40018C12 8.34763 11.9896 8.29559 11.9695 8.24704C11.9494 8.19848 11.92 8.15437 11.8828 8.11721C11.8456 8.08005 11.8015 8.05057 11.753 8.03046C11.7044 8.01035 11.6524 8 11.5998 8C11.5473 8 11.4952 8.01035 11.4467 8.03046C11.3981 8.05057 11.354 8.08005 11.3169 8.11721L10 9.43456L8.68315 8.11721C8.6081 8.04216 8.50631 8 8.40018 8C8.29404 8 8.19226 8.04216 8.11721 8.11721C8.04216 8.19226 8 8.29404 8 8.40018C8 8.50631 8.04216 8.6081 8.11721 8.68315L9.43456 10L8.11721 11.3169C8.08005 11.354 8.05057 11.3981 8.03046 11.4467C8.01035 11.4952 8 11.5473 8 11.5998C8 11.6524 8.01035 11.7044 8.03046 11.753C8.05057 11.8015 8.08005 11.8456 8.11721 11.8828C8.15437 11.92 8.19848 11.9494 8.24704 11.9695C8.29559 11.9896 8.34763 12 8.40018 12C8.45273 12 8.50477 11.9896 8.55332 11.9695C8.60187 11.9494 8.64599 11.92 8.68315 11.8828L10 10.5654L11.3169 11.8828C11.354 11.92 11.3981 11.9494 11.4467 11.9695C11.4952 11.9896 11.5473 12 11.5998 12C11.6524 12 11.7044 11.9896 11.753 11.9695C11.8015 11.9494 11.8456 11.92 11.8828 11.8828C11.92 11.8456 11.9494 11.8015 11.9695 11.753C11.9896 11.7044 12 11.6524 12 11.5998C12 11.5473 11.9896 11.4952 11.9695 11.4467C11.9494 11.3981 11.92 11.354 11.8828 11.3169L10.5654 10Z"
    fill="#969EB0" />
</svg>