<svg width="20" height="20" viewBox="0 0 20 20" fill="none" xmlns="http://www.w3.org/2000/svg">
  <path d="M15.5 5V8H12.5L15.5 5ZM4.5 15L7.5 12H4.5V15Z" fill="#576077" fill-opacity="0.05" />
  <path
    d="M15.6912 4.53813C15.5999 4.50023 15.4994 4.49027 15.4023 4.50952C15.3053 4.52876 15.2162 4.57635 15.1462 4.64625L14.1425 5.65062C12.8831 4.56875 11.46 4 10 4C7.32375 4 5.71375 5.57938 5.64625 5.64625C5.55243 5.74007 5.49972 5.86732 5.49972 6C5.49972 6.13268 5.55243 6.25993 5.64625 6.35375C5.74007 6.44757 5.86732 6.50028 6 6.50028C6.13268 6.50028 6.25993 6.44757 6.35375 6.35375C6.36688 6.34 7.73312 5 10 5C11.4481 5 12.62 5.67813 13.4325 6.36L12.1462 7.64625C12.0762 7.71618 12.0286 7.8053 12.0092 7.90235C11.9899 7.99939 11.9998 8.09998 12.0377 8.1914C12.0756 8.28281 12.1397 8.36092 12.222 8.41586C12.3043 8.4708 12.4011 8.50008 12.5 8.5H15.5C15.6326 8.5 15.7598 8.44732 15.8536 8.35355C15.9473 8.25979 16 8.13261 16 8V5C16 4.90111 15.9706 4.80445 15.9157 4.72223C15.8607 4.64002 15.7826 4.57595 15.6912 4.53813ZM15 7.5H13.7069L15 6.20687V7.5ZM13.6462 13.6462C13.6331 13.66 12.2669 15 10 15C8.55188 15 7.38 14.3219 6.5675 13.64L7.85375 12.3538C7.92376 12.2838 7.97144 12.1947 7.99076 12.0977C8.01009 12.0006 8.00019 11.9 7.96231 11.8086C7.92444 11.7172 7.86029 11.6391 7.77799 11.5841C7.69569 11.5292 7.59895 11.4999 7.5 11.5H4.5C4.36739 11.5 4.24022 11.5527 4.14645 11.6464C4.05268 11.7402 4 11.8674 4 12V15C3.99992 15.0989 4.0292 15.1957 4.08414 15.278C4.13908 15.3603 4.21719 15.4244 4.30861 15.4623C4.40002 15.5002 4.50061 15.5101 4.59765 15.4908C4.6947 15.4714 4.78382 15.4238 4.85375 15.3538L5.8575 14.3494C7.11688 15.4312 8.54 16 10 16C12.6763 16 14.2863 14.4206 14.3538 14.3538C14.4476 14.2599 14.5003 14.1327 14.5003 14C14.5003 13.8673 14.4476 13.7401 14.3538 13.6462C14.2599 13.5524 14.1327 13.4997 14 13.4997C13.8673 13.4997 13.7401 13.5524 13.6462 13.6462ZM5 12.5H6.29313L5 13.7931V12.5Z"
    fill="#16181E" />
</svg>