<svg width="20" height="20" viewBox="0 0 20 20" fill="none" xmlns="http://www.w3.org/2000/svg">
  <path
    d="M7.69277 4.75488L7.79277 4.80488C8.19694 5.01322 8.52611 5.34238 8.73444 5.74655L8.78444 5.84655C8.98444 6.24238 9.55111 6.24238 9.75527 5.84655L9.80527 5.74655C10.0136 5.34238 10.3428 5.01322 10.7469 4.80488L10.8469 4.75488C11.2428 4.55488 11.2428 3.98822 10.8469 3.78405L10.7469 3.73405C10.3428 3.52572 10.0136 3.19655 9.80527 2.79238L9.75527 2.69238C9.55527 2.29655 8.98861 2.29655 8.78444 2.69238L8.73444 2.79238C8.52611 3.19655 8.19694 3.52572 7.79277 3.73405L7.69277 3.78405C7.29694 3.98405 7.29694 4.55072 7.69277 4.75488Z"
    fill="#16181E" />
  <path
    d="M8.48027 8.65905C8.88861 8.45072 8.88861 7.87155 8.48027 7.66322L7.87194 7.35072C7.33027 7.07155 6.88861 6.62988 6.60944 6.08822L6.29694 5.47988C6.08861 5.07155 5.50944 5.07155 5.30111 5.47988L4.98861 6.08822C4.70944 6.62988 4.26777 7.07155 3.72611 7.35072L3.11777 7.66322C2.70944 7.87155 2.70944 8.45072 3.11777 8.65905L3.72611 8.97155C4.26777 9.25072 4.70944 9.69238 4.98861 10.234L5.30111 10.8424C5.50944 11.2507 6.08861 11.2507 6.29694 10.8424L6.60944 10.234C6.88861 9.69238 7.33027 9.25072 7.87194 8.97155L8.48027 8.65905Z"
    fill="#16181E" />
  <path
    d="M16.2969 11.1507L15.6803 10.834C14.9344 10.4549 14.3386 9.85905 13.9594 9.11322L13.6428 8.49655C13.3636 7.94655 12.8053 7.60488 12.1886 7.60488C11.5719 7.60488 11.0136 7.94655 10.7344 8.49655L10.4178 9.11322C10.0386 9.85905 9.44277 10.4549 8.69694 10.834L8.08027 11.1507C7.53027 11.4299 7.18861 11.9882 7.18861 12.6049C7.18861 13.2215 7.53027 13.7799 8.08027 14.0591L8.69694 14.3757C9.44277 14.7549 10.0386 15.3507 10.4178 16.0966L10.7344 16.7132C11.0136 17.2632 11.5719 17.6049 12.1886 17.6049C12.8053 17.6049 13.3636 17.2632 13.6428 16.7132L13.9594 16.0966C14.3386 15.3507 14.9344 14.7549 15.6803 14.3757L16.2969 14.0591C16.8469 13.7799 17.1886 13.2215 17.1886 12.6049C17.1886 11.9882 16.8469 11.4299 16.2969 11.1507ZM15.7303 12.9465L15.1136 13.2632C14.1303 13.7632 13.3469 14.5465 12.8469 15.5299L12.5303 16.1466C12.4344 16.3341 12.2594 16.3549 12.1886 16.3549C12.1178 16.3549 11.9428 16.3341 11.8469 16.1466L11.5303 15.5299C11.0303 14.5465 10.2469 13.7632 9.26361 13.2632L8.64694 12.9465C8.45944 12.8507 8.43861 12.6757 8.43861 12.6049C8.43861 12.534 8.45944 12.359 8.64694 12.2632L9.26361 11.9465C10.2469 11.4465 11.0303 10.6632 11.5303 9.67988L11.8469 9.06322C11.9428 8.87572 12.1178 8.85488 12.1886 8.85488C12.2594 8.85488 12.4344 8.87572 12.5303 9.06322L12.8469 9.67988C13.3469 10.6632 14.1303 11.4465 15.1136 11.9465L15.7303 12.2632C15.9178 12.359 15.9386 12.534 15.9386 12.6049C15.9386 12.6757 15.9178 12.8507 15.7303 12.9465Z"
    fill="#16181E" />
</svg>