<svg width="20" height="20" viewBox="0 0 20 20" fill="none" xmlns="http://www.w3.org/2000/svg">
  <path
    d="M10 3.5C8.71442 3.5 7.45772 3.88122 6.3888 4.59545C5.31988 5.30968 4.48676 6.32484 3.99479 7.51256C3.50282 8.70028 3.37409 10.0072 3.6249 11.2681C3.8757 12.529 4.49477 13.6872 5.40381 14.5962C6.31285 15.5052 7.47104 16.1243 8.73192 16.3751C9.99279 16.6259 11.2997 16.4972 12.4874 16.0052C13.6752 15.5132 14.6903 14.6801 15.4046 13.6112C16.1188 12.5423 16.5 11.2856 16.5 10C16.4982 8.27665 15.8128 6.62441 14.5942 5.40582C13.3756 4.18722 11.7234 3.50182 10 3.5ZM15.5 10C15.5013 11.286 15.0497 12.5313 14.2244 13.5175L6.4825 5.775C7.28563 5.10686 8.26243 4.68128 9.29861 4.54805C10.3348 4.41482 11.3875 4.57946 12.3335 5.0227C13.2795 5.46595 14.0797 6.16946 14.6405 7.05091C15.2013 7.93236 15.4994 8.95529 15.5 10ZM4.5 10C4.49872 8.71404 4.95035 7.46871 5.77563 6.4825L13.5175 14.225C12.7144 14.8931 11.7376 15.3187 10.7014 15.452C9.66521 15.5852 8.61252 15.4205 7.6665 14.9773C6.72048 14.5341 5.92026 13.8305 5.3595 12.9491C4.79873 12.0676 4.5006 11.0447 4.5 10Z"
    fill="#A7AEBF" />
</svg>