<svg width="20" height="20" viewBox="0 0 20 20" fill="none" xmlns="http://www.w3.org/2000/svg">
  <circle cx="10" cy="10" r="7" stroke="#C4C9D5" stroke-dasharray="2 2" />
  <path
    d="M10 17.5C10.9849 17.5 11.9602 17.306 12.8701 16.9291C13.7801 16.5522 14.6069 15.9997 15.3033 15.3033C15.9997 14.6069 16.5522 13.7801 16.9291 12.8701C17.306 11.9602 17.5 10.9849 17.5 10L16.2625 10C16.2625 10.8224 16.1005 11.6368 15.7858 12.3966C15.4711 13.1564 15.0098 13.8467 14.4283 14.4283C13.8467 15.0098 13.1564 15.4711 12.3966 15.7858C11.6368 16.1005 10.8224 16.2625 10 16.2625L10 17.5Z"
    fill="#D99734" />
  <path
    d="M17.5 10C17.5 9.01509 17.306 8.03982 16.9291 7.12987C16.5522 6.21993 15.9997 5.39314 15.3033 4.6967C14.6069 4.00026 13.7801 3.44781 12.8701 3.0709C11.9602 2.69399 10.9849 2.5 10 2.5L10 3.7375C10.8224 3.7375 11.6368 3.89948 12.3966 4.2142C13.1564 4.52892 13.8467 4.99022 14.4283 5.57174C15.0098 6.15327 15.4711 6.84364 15.7858 7.60344C16.1005 8.36325 16.2625 9.1776 16.2625 10L17.5 10Z"
    fill="#D99734" />
</svg>