<svg width="20" height="20" viewBox="0 0 20 20" fill="none" xmlns="http://www.w3.org/2000/svg">
  <path fill-rule="evenodd" clip-rule="evenodd"
    d="M10 16.0667C13.3505 16.0667 16.0667 13.3505 16.0667 10C16.0667 6.64947 13.3505 3.93333 10 3.93333C6.64947 3.93333 3.93333 6.64947 3.93333 10C3.93333 13.3505 6.64947 16.0667 10 16.0667ZM10 17C13.866 17 17 13.866 17 10C17 6.13401 13.866 3 10 3C6.13401 3 3 6.13401 3 10C3 13.866 6.13401 17 10 17Z"
    fill="#234DEC" />
  <path
    d="M12.854 8.14664C12.9005 8.19308 12.9374 8.24822 12.9626 8.30892C12.9877 8.36962 13.0007 8.43469 13.0007 8.50039C13.0007 8.5661 12.9877 8.63116 12.9626 8.69186C12.9374 8.75256 12.9005 8.80771 12.854 8.85414L9.35403 12.3541C9.30759 12.4006 9.25245 12.4375 9.19175 12.4627C9.13105 12.4878 9.06599 12.5008 9.00028 12.5008C8.93457 12.5008 8.86951 12.4878 8.80881 12.4627C8.74811 12.4375 8.69296 12.4006 8.64653 12.3541L7.14653 10.8541C7.05271 10.7603 7 10.6331 7 10.5004C7 10.3677 7.05271 10.2405 7.14653 10.1466C7.24035 10.0528 7.3676 10.0001 7.50028 10.0001C7.63296 10.0001 7.76021 10.0528 7.85403 10.1466L9.00028 11.2935L12.1465 8.14664C12.193 8.10015 12.2481 8.06327 12.3088 8.03811C12.3695 8.01295 12.4346 8 12.5003 8C12.566 8 12.631 8.01295 12.6917 8.03811C12.7524 8.06327 12.8076 8.10015 12.854 8.14664Z"
    fill="#234DEC" />
</svg>