<svg width="20" height="20" viewBox="0 0 20 20" fill="none" xmlns="http://www.w3.org/2000/svg">
  <g id="icon">
    <path id="splash" d="M13.5 4.29857L14 16L10 15.4783H6V9.73913L6.5 4L10.5001 4.29857H13.5Z" fill="#576077"
      fill-opacity="0.05" />
    <path id="icon_2" fill-rule="evenodd" clip-rule="evenodd"
      d="M7.33333 4.5C7.11232 4.5 6.90036 4.5878 6.74408 4.74408C6.5878 4.90036 6.5 5.11232 6.5 5.33333V15.5H13.5V5.33333C13.5 5.11232 13.4122 4.90036 13.2559 4.74408C13.0996 4.5878 12.8877 4.5 12.6667 4.5H7.33333ZM14.5 15.5V5.33333C14.5 4.8471 14.3068 4.38079 13.963 4.03697C13.6192 3.69315 13.1529 3.5 12.6667 3.5H7.33333C6.8471 3.5 6.38079 3.69315 6.03697 4.03697C5.69315 4.38079 5.5 4.8471 5.5 5.33333V15.5H4C3.72386 15.5 3.5 15.7239 3.5 16C3.5 16.2761 3.72386 16.5 4 16.5H16C16.2761 16.5 16.5 16.2761 16.5 16C16.5 15.7239 16.2761 15.5 16 15.5H14.5ZM11.3333 9.5C11.6095 9.5 11.8333 9.72386 11.8333 10V10.0067C11.8333 10.2828 11.6095 10.5067 11.3333 10.5067C11.0572 10.5067 10.8333 10.2828 10.8333 10.0067V10C10.8333 9.72386 11.0572 9.5 11.3333 9.5Z"
      fill="#576077" />
  </g>
</svg>